<svg width="34" height="41" viewBox="0 0 34 41" fill="none" xmlns="http://www.w3.org/2000/svg">
<path d="M24.1237 30.0882C23.0892 30.3669 21.9915 30.4873 20.8579 30.4237C15.5933 30.1278 11.3477 25.8095 11.1118 20.5088C10.845 14.5389 15.5762 9.61508 21.4495 9.61508C22.3472 9.61508 23.2175 9.73034 24.0485 9.94712C24.9803 10.1897 25.8848 9.4654 25.8848 8.4968V1.80948C25.8848 1.13852 25.4163 0.560451 24.7632 0.426258C23.3201 0.132064 21.8222 -0.00557013 20.2851 0.0339998C9.64303 0.302387 1.03225 9.09551 0.915982 19.8069C0.796293 30.9536 9.74049 40.0271 20.7912 40.0271C22.1317 40.0271 23.4415 39.8929 24.7085 39.6383C25.3941 39.5007 25.8831 38.8865 25.8831 38.1828V31.4284C25.8831 30.5045 25.0094 29.8491 24.122 30.0882H24.1237Z" fill="#232425"/>
<path d="M32.178 14.2703C30.9657 13.0505 28.9994 13.0505 27.7871 14.2703L24.7932 17.2828L23.9844 16.469C22.7721 15.2492 20.8058 15.2492 19.5935 16.469C18.3813 17.6888 18.3813 19.6673 19.5935 20.8871L23.7792 25.0987C24.3435 25.6664 25.2582 25.6664 25.8225 25.0987L26.9955 23.9185C27.0536 23.86 27.1049 23.7998 27.1579 23.7378L32.1763 18.6884C33.3886 17.4686 33.3886 15.4901 32.1763 14.2703H32.178Z" fill="#2BC041"/>
</svg>
