<svg width="62" height="63" viewBox="0 0 62 63" fill="none" xmlns="http://www.w3.org/2000/svg">
<path d="M31.0003 57.6393C45.2681 57.6393 56.8337 46.0737 56.8337 31.806C56.8337 17.5382 45.2681 5.97266 31.0003 5.97266C16.7326 5.97266 5.16699 17.5382 5.16699 31.806C5.16699 46.0737 16.7326 57.6393 31.0003 57.6393Z" stroke="#1FB841" stroke-width="1.5" stroke-linecap="round" stroke-linejoin="round"/>
<path d="M38.7502 22.7637C36.9807 20.9941 33.8652 19.7644 31.0002 19.6869M31.0002 19.6869C27.5902 19.5939 24.5419 21.1362 24.5419 25.347C24.5419 33.097 38.7502 29.222 38.7502 36.972C38.7502 41.3921 34.9682 43.2908 31.0002 43.1488M31.0002 19.6869V15.0137M23.2502 39.5553C24.9139 41.777 28.0113 43.0428 31.0002 43.1488M31.0002 43.1488V48.597" stroke="#1FB841" stroke-width="1.5" stroke-linecap="round" stroke-linejoin="round"/>
</svg>
